<?xml version="1.0" standalone="no"?>
<!DOCTYPE svg PUBLIC "-//W3C//DTD SVG 20010904//EN"
 "http://www.w3.org/TR/2001/REC-SVG-20010904/DTD/svg10.dtd">
<svg version="1.0" xmlns="http://www.w3.org/2000/svg"
 width="1162.000000pt" height="1280.000000pt" viewBox="0 0 1162.000000 1280.000000"
 preserveAspectRatio="xMidYMid meet">
<metadata>
Created by potrace 1.15, written by Peter Selinger 2001-2017
</metadata>
<g transform="translate(0.000000,1280.000000) scale(0.100000,-0.100000)"
fill="#000000" stroke="none">
<path d="M4082 12662 c-23 -268 -10 -651 28 -876 78 -454 252 -917 498 -1323
45 -73 79 -133 78 -133 -1 0 -36 11 -77 25 -264 91 -562 155 -914 196 -143 17
-615 17 -760 0 -765 -89 -1488 -421 -1995 -918 l-76 -73 -51 15 c-58 17 -157
88 -197 139 -14 20 -44 68 -66 108 -165 308 -155 709 25 1070 81 161 220 345
357 473 45 41 77 75 72 75 -19 0 -150 -113 -259 -224 -212 -215 -338 -436
-408 -716 -30 -122 -30 -361 1 -474 77 -279 250 -500 418 -532 19 -3 34 -8 34
-11 0 -3 -24 -33 -53 -66 -275 -320 -494 -730 -613 -1150 -60 -213 -108 -497
-120 -710 -8 -129 0 -210 52 -522 66 -400 78 -441 192 -670 144 -290 346 -543
606 -760 232 -194 578 -343 929 -402 140 -23 427 -23 557 0 200 36 385 106
533 201 84 54 189 157 271 266 145 193 188 313 189 525 1 203 -49 371 -157
532 l-52 78 64 -3 c81 -5 140 17 183 65 36 42 69 113 69 152 0 103 -184 192
-520 250 -132 23 -429 56 -437 48 -9 -9 46 -214 108 -402 108 -328 221 -515
312 -515 45 0 105 35 140 82 39 51 51 113 38 196 -6 39 -11 83 -11 98 l0 27
26 -24 c36 -34 101 -170 123 -261 47 -185 47 -397 1 -521 -58 -154 -240 -379
-383 -474 -448 -295 -1180 -259 -1705 83 -407 265 -726 730 -841 1224 -46 196
-72 517 -58 725 22 349 112 682 273 1005 350 705 949 1221 1704 1468 107 35
297 82 334 82 60 0 192 -217 236 -385 79 -306 23 -647 -155 -950 -67 -114
-196 -277 -293 -372 -42 -40 -72 -73 -67 -73 4 0 18 8 29 18 21 17 21 17 3 -4
-33 -40 -60 -28 -96 43 -44 83 -85 107 -178 101 -53 -3 -68 -9 -90 -31 -23
-23 -28 -37 -31 -98 -7 -118 34 -273 135 -516 l56 -133 40 32 c77 61 304 296
367 379 108 143 127 215 70 263 -56 47 -142 47 -214 0 -24 -15 14 26 88 97
201 192 318 358 400 566 116 292 124 554 25 803 -37 91 -79 168 -130 236 l-38
52 77 11 c242 34 477 45 667 32 728 -53 1364 -289 1997 -743 94 -68 201 -144
237 -170 122 -87 315 -214 431 -283 199 -118 510 -329 650 -441 168 -134 435
-400 561 -559 244 -305 461 -680 569 -983 82 -229 179 -625 205 -838 l6 -50
-116 -107 c-251 -230 -484 -374 -762 -471 -383 -133 -816 -140 -1182 -20 -519
172 -936 639 -1035 1162 -51 268 -22 522 84 749 63 132 108 201 198 295 268
281 712 386 995 236 33 -18 95 -65 137 -105 103 -96 131 -158 138 -296 5 -96
-12 -217 -29 -217 -5 0 -13 19 -19 43 -37 147 -91 197 -213 197 -132 0 -153
-253 -61 -715 14 -71 29 -133 32 -137 16 -16 358 229 474 340 131 125 168 201
126 261 -52 76 -152 93 -252 42 -44 -22 -56 -25 -51 -12 53 136 44 328 -21
439 -65 110 -212 224 -348 269 -74 24 -94 27 -236 27 -127 -1 -169 -5 -234
-22 -385 -106 -669 -381 -801 -776 -47 -138 -59 -251 -51 -476 6 -181 17 -245
76 -420 30 -88 109 -255 166 -349 148 -244 413 -490 665 -616 307 -155 688
-232 1011 -205 451 37 871 203 1236 487 l82 64 0 -54 c0 -152 -44 -447 -95
-630 -50 -183 -115 -358 -142 -383 -13 -12 -21 -28 -18 -36 19 -48 -218 -447
-395 -667 -225 -280 -535 -530 -861 -696 -151 -77 -311 -127 -492 -155 -457
-70 -856 -267 -1163 -575 l-101 -101 -23 43 c-31 58 -114 135 -187 171 -134
68 -379 100 -550 72 -148 -24 -308 -92 -460 -197 -103 -71 -289 -262 -363
-373 -59 -89 -164 -290 -203 -387 -12 -30 -23 -43 -37 -43 -20 0 -31 28 -45
115 -18 116 -108 185 -241 185 -47 0 -55 -4 -83 -35 -16 -19 -37 -58 -46 -87
-23 -73 -30 -269 -16 -418 13 -134 59 -437 70 -457 7 -12 134 58 326 180 288
182 455 346 455 444 0 38 -49 96 -103 122 -59 29 -132 27 -207 -3 -33 -14 -60
-23 -60 -20 0 29 133 241 225 360 169 216 415 385 669 459 263 76 551 46 713
-73 40 -30 103 -110 103 -131 0 -5 -24 -46 -54 -90 -193 -288 -300 -657 -282
-970 17 -304 102 -554 275 -813 80 -119 156 -195 321 -319 131 -99 151 -110
269 -151 123 -43 199 -57 341 -64 98 -5 143 -3 210 10 405 83 720 395 720 716
0 67 -23 176 -46 227 -21 44 -127 160 -155 168 -29 9 -24 18 27 44 64 34 97
80 102 144 5 75 -15 128 -58 149 -45 23 -89 23 -183 -1 -125 -33 -330 -123
-530 -235 -59 -33 -66 -40 -55 -54 7 -8 68 -60 136 -114 285 -228 488 -333
574 -297 58 24 88 142 52 211 -9 18 -39 56 -67 85 -66 70 -41 69 29 -2 83 -82
108 -144 112 -280 3 -92 0 -120 -17 -172 -65 -191 -245 -369 -462 -456 -116
-46 -193 -60 -334 -59 -147 0 -264 25 -396 82 -289 126 -549 427 -652 756 -50
157 -62 245 -62 444 0 205 18 315 76 472 115 313 365 624 632 787 176 108 348
169 948 341 230 66 459 134 507 151 540 191 993 642 1329 1324 38 77 79 163
91 192 l22 52 143 70 c216 107 398 159 633 182 199 19 396 -6 632 -78 78 -24
82 -27 82 -54 0 -34 13 -38 26 -8 9 20 12 19 89 -22 380 -200 644 -576 695
-989 15 -123 12 -204 -10 -332 -23 -133 -44 -200 -99 -306 -110 -209 -289
-365 -501 -433 -234 -76 -516 -36 -658 95 -54 50 -113 135 -137 199 -36 94 -1
275 67 353 17 19 28 37 26 40 -8 8 -75 -72 -98 -116 -34 -66 -53 -158 -47
-228 5 -70 42 -153 102 -235 110 -148 362 -236 597 -207 185 22 327 79 463
184 99 78 158 142 230 251 83 124 95 158 150 399 73 318 -21 736 -230 1031
-109 153 -284 313 -454 414 l-83 49 42 31 c155 112 468 86 730 -61 198 -110
400 -328 510 -548 70 -139 146 -377 165 -515 l7 -50 -53 57 c-77 81 -142 93
-236 45 -68 -36 -79 -92 -40 -200 38 -105 182 -320 320 -480 l33 -39 70 114
c87 143 195 355 222 439 45 135 39 208 -20 228 -86 30 -166 -2 -236 -92 -47
-61 -47 -62 -50 -32 -29 317 -116 592 -252 797 -215 324 -458 482 -802 520
-190 21 -336 -19 -438 -121 -28 -28 -53 -51 -57 -51 -3 0 -49 16 -102 36 -352
132 -805 127 -1200 -12 -69 -24 -126 -44 -127 -44 -1 0 9 37 23 83 35 120 80
352 98 507 61 526 -1 1084 -174 1566 -86 242 -212 507 -340 719 -43 72 -78
131 -76 133 1 1 42 14 91 28 415 119 844 375 1163 693 325 325 541 708 635
1126 l23 100 40 3 c61 5 186 -47 253 -105 134 -117 226 -245 289 -406 62 -161
76 -242 76 -457 0 -207 -11 -278 -72 -459 -47 -141 -165 -392 -178 -379 -3 2
7 40 21 83 30 96 27 141 -16 209 -34 53 -110 106 -152 106 -16 0 -41 -6 -56
-14 -33 -17 -106 -94 -149 -156 -70 -103 -191 -369 -267 -589 l-36 -104 252 6
c406 11 638 56 724 142 45 45 23 156 -42 217 -40 37 -88 55 -164 63 -121 12
-118 1 -44 118 253 399 337 803 243 1177 -26 104 -94 247 -158 332 -79 105
-211 222 -297 265 -66 32 -87 37 -165 41 -79 4 -89 7 -84 21 3 10 9 78 14 152
38 585 -175 1146 -601 1580 -119 121 -452 334 -614 392 -273 98 -651 107 -919
21 -77 -25 -258 -118 -343 -176 -145 -100 -307 -281 -380 -424 l-21 -41 -263
-6 c-276 -6 -359 -16 -443 -57 -57 -27 -72 -57 -56 -110 25 -84 78 -121 205
-144 l59 -11 -84 -71 c-308 -260 -473 -505 -566 -839 -32 -118 -42 -344 -20
-450 9 -38 14 -71 12 -73 -5 -5 -141 114 -249 218 -352 340 -657 783 -831
1209 -84 206 -180 555 -225 814 -29 169 -42 434 -30 614 5 81 10 151 10 156 0
4 -74 7 -163 7 l-164 0 -11 -138z m4128 -547 c315 -42 594 -188 845 -439 267
-269 414 -554 497 -966 19 -99 23 -145 23 -335 0 -229 -5 -278 -50 -458 -107
-426 -396 -866 -760 -1160 -285 -230 -586 -378 -982 -483 l-136 -36 -26 34
c-166 213 -474 526 -681 692 -129 103 -415 301 -473 327 -19 9 -26 17 -22 30
5 13 1 16 -13 12 -11 -2 -35 3 -53 13 -75 38 -420 267 -438 290 -26 33 -69
164 -86 262 -8 42 -14 124 -15 182 -1 337 132 652 409 969 57 65 159 156 166
149 3 -2 -4 -28 -15 -56 -38 -99 -21 -158 63 -226 47 -37 91 -39 142 -5 47 31
124 133 174 231 l40 77 5 -47 c12 -97 46 -232 72 -289 43 -91 158 -200 264
-251 102 -48 174 -65 258 -61 38 3 62 0 62 -6 0 -6 -23 -33 -51 -60 -75 -74
-92 -107 -92 -175 0 -43 7 -73 27 -114 37 -75 60 -90 134 -84 135 10 345 150
645 430 64 60 117 113 117 117 0 4 -66 40 -147 79 -386 185 -651 265 -771 233
-59 -16 -82 -55 -82 -139 0 -100 42 -161 157 -229 l48 -28 -46 -3 c-133 -9
-384 150 -449 283 -65 135 -84 359 -41 495 85 273 298 509 583 645 212 102
443 135 698 100z"/>
<path d="M1305 11881 c-317 -92 -497 -171 -569 -251 -40 -44 -43 -58 -21 -99
38 -75 120 -109 220 -92 108 19 102 23 106 -73 5 -102 20 -128 99 -168 67 -35
100 -35 140 -2 61 52 103 169 134 374 15 103 33 351 25 349 -2 0 -62 -17 -134
-38z"/>
<path d="M8875 2149 c-47 -42 -80 -99 -120 -211 -51 -144 -104 -408 -130 -645
l-7 -63 34 6 c99 19 403 100 505 135 296 102 419 194 393 290 -12 41 -71 114
-109 133 -41 22 -109 28 -191 17 -98 -13 -102 -9 -91 89 14 133 -20 204 -121
254 -72 36 -118 34 -163 -5z"/>
</g>
</svg>
