<svg width="38" height="38" viewBox="0 0 38 38" fill="none" xmlns="http://www.w3.org/2000/svg">
<path fill-rule="evenodd" clip-rule="evenodd" d="M19 29C24.5228 29 29 24.5228 29 19C29 13.4771 24.5228 9 19 9C13.4771 9 9 13.4771 9 19C9 24.5228 13.4771 29 19 29ZM19 25.6667C22.6818 25.6667 25.6667 22.6818 25.6667 19C25.6667 15.3181 22.6818 12.3333 19 12.3333C15.3181 12.3333 12.3333 15.3181 12.3333 19C12.3333 22.6818 15.3181 25.6667 19 25.6667Z" fill="white"/>
<path d="M29 7.3335C28.0795 7.3335 27.3333 8.0797 27.3333 9.00016C27.3333 9.92063 28.0795 10.6668 29 10.6668C29.9205 10.6668 30.6666 9.92063 30.6666 9.00016C30.6666 8.0797 29.9205 7.3335 29 7.3335Z" fill="white"/>
<path fill-rule="evenodd" clip-rule="evenodd" d="M1.75659 6.1266C0.666656 8.26572 0.666656 11.066 0.666656 16.6665V21.3332C0.666656 26.9337 0.666656 29.734 1.75659 31.873C2.71532 33.7547 4.24512 35.2845 6.12676 36.2432C8.26587 37.3332 11.0661 37.3332 16.6667 37.3332H21.3333C26.9338 37.3332 29.7342 37.3332 31.8732 36.2432C33.7548 35.2845 35.2847 33.7547 36.2433 31.873C37.3333 29.734 37.3333 26.9337 37.3333 21.3332V16.6665C37.3333 11.066 37.3333 8.26572 36.2433 6.1266C35.2847 4.24497 33.7548 2.71517 31.8732 1.75644C29.7342 0.666504 26.9338 0.666504 21.3333 0.666504H16.6667C11.0661 0.666504 8.26587 0.666504 6.12676 1.75644C4.24512 2.71517 2.71532 4.24497 1.75659 6.1266ZM21.3333 3.99984H16.6667C13.8114 3.99984 11.8704 4.00244 10.3701 4.125C8.90872 4.2444 8.16139 4.46082 7.64006 4.72645C6.38564 5.36562 5.36577 6.38549 4.72661 7.6399C4.46097 8.16124 4.24456 8.90857 4.12516 10.37C4.00259 11.8703 3.99999 13.8112 3.99999 16.6665V21.3332C3.99999 24.1885 4.00259 26.1293 4.12516 27.6297C4.24456 29.0912 4.46097 29.8385 4.72661 30.3598C5.36577 31.6142 6.38564 32.634 7.64006 33.2732C8.16139 33.5388 8.90872 33.7553 10.3701 33.8747C11.8704 33.9972 13.8114 33.9998 16.6667 33.9998H21.3333C24.1887 33.9998 26.1295 33.9972 27.6298 33.8747C29.0913 33.7553 29.8387 33.5388 30.36 33.2732C31.6143 32.634 32.6342 31.6142 33.2733 30.3598C33.539 29.8385 33.7555 29.0912 33.8748 27.6297C33.9973 26.1293 34 24.1885 34 21.3332V16.6665C34 13.8112 33.9973 11.8703 33.8748 10.37C33.7555 8.90857 33.539 8.16124 33.2733 7.6399C32.6342 6.38549 31.6143 5.36562 30.36 4.72645C29.8387 4.46082 29.0913 4.2444 27.6298 4.125C26.1295 4.00244 24.1887 3.99984 21.3333 3.99984Z" fill="white"/>
</svg>
