<svg width="285" height="305" viewBox="0 0 285 305" fill="none" xmlns="http://www.w3.org/2000/svg">
<g filter="url(#filter0_dd_12_9)">
<path d="M88.0343 276.133H91.7186C92.632 276.133 93.3532 276.35 93.8823 276.784C94.4113 277.216 94.6758 277.862 94.6758 278.72C94.6758 279.531 94.4284 280.172 93.9356 280.644C93.4427 281.117 92.7709 281.353 91.9203 281.353H89.5244V284.62H88.0343V276.133ZM89.5244 277.374V280.149H91.5987C92.6796 280.149 93.22 279.685 93.22 278.757C93.22 277.834 92.6358 277.374 91.4674 277.374H89.5244ZM108.695 276.133V277.385H104.058V279.637H108.362V280.842H104.058V283.343H108.766V284.62H102.579V276.133H108.695ZM124.003 281.389C123.923 282.43 123.552 283.263 122.888 283.885C122.224 284.509 121.364 284.821 120.307 284.821C119.107 284.821 118.146 284.416 117.422 283.606C116.697 282.795 116.338 281.719 116.338 280.375C116.338 279.565 116.492 278.829 116.802 278.165C117.112 277.503 117.577 276.966 118.197 276.557C118.815 276.148 119.544 275.943 120.378 275.943C121.276 275.943 122.058 276.192 122.726 276.687C123.394 277.185 123.796 277.902 123.931 278.838H122.452C122.349 278.33 122.111 277.931 121.737 277.642C121.364 277.351 120.903 277.206 120.355 277.206C119.79 277.206 119.312 277.366 118.918 277.684C118.524 278.001 118.246 278.393 118.083 278.857C117.921 279.322 117.839 279.828 117.839 280.375C117.839 280.79 117.887 281.178 117.982 281.543C118.077 281.911 118.22 282.245 118.41 282.552C118.602 282.858 118.861 283.102 119.192 283.284C119.521 283.467 119.906 283.558 120.342 283.558C121.607 283.558 122.33 282.835 122.513 281.389H124.003ZM137.844 276.133V277.421H135.138V284.62H133.647V277.421H130.941V276.133H137.844ZM148.894 275.932C150.095 275.932 151.071 276.342 151.823 277.164C152.573 277.986 152.95 279.057 152.95 280.375C152.95 281.696 152.571 282.767 151.815 283.589C151.062 284.41 150.08 284.821 148.872 284.821C147.655 284.821 146.672 284.412 145.922 283.594C145.17 282.776 144.795 281.703 144.795 280.375C144.795 279.089 145.163 278.026 145.897 277.189C146.632 276.35 147.631 275.932 148.894 275.932ZM148.872 277.183C148.093 277.183 147.469 277.471 147.001 278.047C146.531 278.623 146.297 279.392 146.297 280.353C146.297 281.338 146.529 282.12 146.993 282.7C147.458 283.28 148.093 283.569 148.894 283.569C149.667 283.569 150.284 283.278 150.748 282.694C151.214 282.11 151.446 281.334 151.446 280.364C151.446 279.396 151.214 278.623 150.748 278.047C150.284 277.471 149.659 277.183 148.872 277.183ZM160.948 276.133H164.632C165.546 276.133 166.267 276.35 166.796 276.784C167.325 277.216 167.588 277.862 167.588 278.72C167.588 279.531 167.342 280.172 166.849 280.644C166.356 281.117 165.685 281.353 164.836 281.353H162.438V284.62H160.948V276.133ZM162.438 277.374V280.149H164.512C165.595 280.149 166.134 279.685 166.134 278.757C166.134 277.834 165.549 277.374 164.381 277.374H162.438ZM178.497 276.122L181.776 284.62H180.178L179.367 282.367H176.006L175.171 284.62H173.633L176.912 276.122H178.497ZM178.975 281.247L177.712 277.67L176.387 281.247H178.975ZM196.047 276.133V284.62H194.555V280.805H190.669V284.62H189.179V276.133H190.669V279.506H194.555V276.133H196.047Z" fill="white"/>
</g>
<g filter="url(#filter1_dd_12_9)">
<path d="M20 244.031C20 230.732 36.872 217.263 48.9333 215.511C51.3863 227.797 54.0467 241.482 59.6929 252.674H52.7203C48.115 243.938 45.6392 230.536 43.6848 220.832C35.3877 224.703 26.7005 233.156 26.7005 240.967C26.7005 250.25 42.1415 248.003 47.369 244.701L48.5318 247.906C43.7324 251.823 37.1423 253.539 31.0241 253.539C25.0886 253.539 20 250.463 20 244.031ZM191.723 252.674V216.375H197.803V239.213C204.316 236.721 214.662 231.835 214.662 222.9C214.662 222.008 214.402 221.258 213.869 220.638C213.336 220.033 212.586 219.63 211.636 219.4V215.511C216.48 215.511 221.172 218.985 221.172 223.288C221.172 227.509 218.453 233.397 211.191 237.343L221.591 252.674H214.244L205.743 240.055L197.803 243.514V252.674H191.723ZM152.415 231.658C152.415 226.977 152.929 221.892 156.805 216.375H163.245C160.982 220.509 159.422 224.038 158.548 226.977C157.679 229.899 157.25 232.853 157.25 235.836C157.25 240.82 157.884 245.083 159.138 248.627L174.941 216.375H182.029V252.674H175.949V223.303L161.256 252.674H155.983C154.552 246.367 152.415 241.438 152.415 231.658ZM101.23 215.511L112.541 229.195C107.538 231.887 101.648 236.966 101.648 243.168C101.648 250.377 105.241 252.674 111.186 252.674V248.785C110.178 248.555 109.428 248.051 108.924 247.258C108.419 246.48 108.161 245.241 108.161 243.556C108.161 238.168 112.052 233.287 119.832 228.892V251.81H125.912V228.892C133.693 233.256 137.583 238.14 137.583 243.556C137.583 245.241 137.334 246.48 136.835 247.258C136.327 248.049 135.566 248.555 134.557 248.785V252.674C140.578 252.674 144.095 250.364 144.095 243.168C144.095 236.966 138.205 230.456 133.202 227.764L144.514 215.511H137.164L129.082 225.565C128.852 225.449 128.578 225.318 128.26 225.162C127.931 225 127.543 224.797 127.094 224.542C126.65 224.293 126.258 224.081 125.912 223.908V215.511H119.832V223.908C117.786 224.989 116.72 225.537 116.633 225.565L108.623 215.511H101.23ZM60.9717 252.674C70.0034 242.648 72.0339 228.818 67.1089 216.375H91.8537V248.785H96.1754V258.849H93.4103L91.003 252.674H66.1593L63.7387 258.849H60.9717V252.674ZM72.5134 220.265C74.8275 227.251 76.3499 240.052 71.2004 248.785H85.7736V220.265H72.5134ZM224.388 244.031C224.388 230.732 241.259 217.263 253.322 215.511C255.773 227.797 258.435 241.482 264.079 252.674H257.107C252.502 243.938 250.026 230.536 248.073 220.832C239.774 224.703 231.087 233.156 231.087 240.967C231.087 250.25 246.528 248.003 251.756 244.701L252.918 247.906C248.119 251.823 241.529 253.539 235.411 253.539C229.475 253.539 224.388 250.463 224.388 244.031Z" fill="white"/>
</g>
<g filter="url(#filter2_dd_12_9)">
<path d="M87.7984 42.4591C102.777 27.4876 122.408 20 142.04 20C157.094 20 172.151 24.4039 185.107 33.2099C184.739 34.5929 184.551 36.031 184.551 37.4939C184.551 39.305 184.842 41.0799 185.402 42.7577C172.777 32.5878 157.408 27.5028 142.04 27.5028C124.328 27.5028 106.617 34.2562 93.104 47.7647L93.0259 47.8446V47.8427C90.1885 50.6791 86.4682 52.0982 82.7497 52.0982C79.0312 52.0982 75.3128 50.6791 72.4754 47.8446C69.638 45.0082 68.2184 41.2891 68.2184 37.5719C68.2184 33.8548 69.638 30.1357 72.4754 27.2993C75.3128 24.4629 79.0331 23.0437 82.7497 23.0437C86.4682 23.0437 90.1885 24.4629 93.0259 27.2993C94.5312 28.8059 95.6388 30.5599 96.3448 32.4299C94.0745 34.0412 91.8822 35.7799 89.7775 37.6404V37.5719C89.7775 35.7742 89.0905 33.9765 87.7203 32.6049C86.3483 31.2333 84.5499 30.5466 82.7497 30.5466C80.9514 30.5466 79.153 31.2333 77.781 32.6049C76.4089 33.9765 75.7238 35.7742 75.7238 37.5719C75.7238 39.3696 76.4089 41.1674 77.781 42.5389C79.153 43.9105 80.9514 44.5954 82.7497 44.5954C84.5499 44.5954 86.3483 43.9105 87.7184 42.5389H87.7203L87.7984 42.4591ZM146.032 92.6923C148.236 94.8971 148.236 98.4697 146.032 100.675C143.829 102.877 140.253 102.877 138.047 100.675C135.844 98.4697 135.844 94.8971 138.047 92.6923C140.253 90.4875 143.829 90.4875 146.032 92.6923ZM173.363 87.9022C172.149 89.7684 165.924 100.34 171.443 110.019C177.133 120.002 187.046 120.415 191.455 125.085C196.298 130.214 191.666 138.088 187.562 142.439C181.645 148.709 175.449 150.712 171.35 147.05C168.488 144.497 164.668 140.565 161.171 135.832C162.743 133.853 164.368 131.917 166.054 130.033C169.441 134.898 173.39 138.995 176.267 141.565C176.284 141.581 176.387 141.497 176.648 141.423C178.212 140.978 180.132 139.591 182.218 137.38C183.843 135.657 185.561 133.245 186.054 131.049C186.157 130.591 186.195 130.235 186.11 130.144C185.426 129.419 183.588 128.542 181.552 127.57C176.113 124.973 169.778 121.948 165.057 113.669C163.165 110.352 162.238 106.988 161.947 103.758C161.397 104.629 160.885 105.581 160.423 106.617C158.672 110.559 159.001 114.959 160.432 119.272C159.458 120.29 158.501 121.323 157.559 122.373C156.67 123.366 155.798 124.37 154.94 125.39C151.802 118.401 150.537 110.759 153.711 103.619C159.523 90.5522 171.441 87.5807 173.363 87.9022ZM110.718 105.465C111.932 103.597 118.155 93.0252 112.638 83.348C106.946 73.3645 97.0337 72.9517 92.6263 68.2795C87.7831 63.1508 92.4151 55.2789 96.5179 50.9283C102.434 44.6563 108.632 42.655 112.732 46.3151C115.508 48.7958 119.19 52.5738 122.604 57.1223C121.042 59.1103 119.44 61.0697 117.769 62.9663C114.442 58.2637 110.617 54.3068 107.814 51.8015C107.795 51.7843 107.694 51.868 107.432 51.9422C105.867 52.3893 103.949 53.7761 101.863 55.9866C100.238 57.7082 98.518 60.1223 98.0251 62.3176C97.9224 62.7761 97.8843 63.1299 97.9718 63.2231C98.655 63.946 100.493 64.8249 102.528 65.797C107.966 68.3918 114.303 71.4184 119.023 79.6955C120.914 83.0151 121.841 86.3784 122.134 89.6086C122.684 88.7373 123.196 87.7843 123.657 86.7475C125.468 82.6746 125.054 78.1108 123.499 73.6594L123.809 73.3303L124.058 73.062L124.424 72.6682C124.597 72.478 124.77 72.2916 124.943 72.1013L125.217 71.7989C125.611 71.3708 125.995 70.9333 126.38 70.4977C127.246 69.5161 128.095 68.5192 128.93 67.5129C132.222 74.6258 133.615 82.4482 130.369 89.7456C124.559 102.813 112.638 105.786 110.718 105.465ZM150.824 127.994C148.955 126.78 138.382 120.56 128.7 126.076C118.715 131.764 118.3 141.674 113.628 146.08C108.495 150.921 100.621 146.291 96.2686 142.189C89.9963 136.275 87.9925 130.079 91.6539 125.981C94.2229 123.109 98.1831 119.266 102.946 115.754C104.925 117.328 106.861 118.952 108.745 120.64C103.85 124.037 99.7245 128.007 97.1421 130.897C97.125 130.916 97.2106 131.017 97.2849 131.279C97.7302 132.843 99.1174 134.761 101.329 136.846C103.051 138.47 105.466 140.19 107.662 140.683C108.121 140.785 108.476 140.823 108.568 140.736C109.293 140.053 110.17 138.215 111.143 136.18C113.74 130.743 116.766 124.412 125.048 119.692C128.367 117.801 131.731 116.875 134.962 116.584C134.091 116.034 133.139 115.52 132.102 115.06C128.186 113.319 123.817 113.635 119.529 115.041C118.488 114.042 117.43 113.063 116.355 112.1C115.384 111.233 114.402 110.38 113.407 109.541C120.376 106.431 127.988 105.189 135.101 108.349C148.173 114.158 151.146 126.075 150.824 127.994ZM144.871 37.688C150.596 46.7203 155.555 53.9054 160.59 60.09C159.108 62.0836 157.351 63.7729 155.072 65.1844C150.708 59.8522 146.42 53.8255 141.707 46.5985C140.664 48.1946 139.644 49.7317 138.639 51.2155L138.523 51.3886L138.375 51.6055L138.373 51.6074L138.224 51.8262L138.112 51.9917L138.078 52.043L137.929 52.2599L137.849 52.376L137.781 52.4768L137.337 53.1198L137.324 53.1388L137.065 53.5174L137.044 53.5459L136.896 53.7571L136.805 53.8921L136.749 53.9682L136.605 54.1794L136.544 54.265L136.458 54.3886L136.285 54.6359L136.165 54.8053L136.026 55.005L136.021 55.0126L136.009 55.0259L135.767 55.3702L135.729 55.4254L135.583 55.6309L135.511 55.7355L135.438 55.8344L135.294 56.038L135.252 56.0969L135.149 56.2415L135.002 56.4451L134.995 56.4565L134.86 56.6467L134.738 56.8141L134.713 56.8484L134.57 57.0481L134.481 57.1699L134.426 57.2479L134.281 57.4476L134.226 57.5218L134.137 57.6454L133.994 57.8433L133.971 57.8737L133.849 58.0392L133.716 58.2238L133.706 58.2371L133.562 58.433L133.461 58.57L133.417 58.6271L133.274 58.823L133.132 59.0151L132.989 59.2092L132.951 59.2586L132.844 59.4032L132.702 59.5934L132.698 59.6011L132.559 59.7856L132.443 59.9397L132.416 59.9758L132.272 60.1661C129.794 63.459 127.341 66.4761 124.819 69.3144L124.555 69.6112L124.519 69.653C124.271 69.9289 124.024 70.2028 123.777 70.4729L123.761 70.492C123.508 70.7697 123.253 71.0455 123 71.3195L122.994 71.3252L122.924 71.4013L122.732 71.6067L122.694 71.6486L122.231 72.1375L122.205 72.166C121.444 72.9726 120.673 73.7621 119.893 74.544C119.535 74.8997 119.177 75.2554 118.815 75.6074C117.337 73.5757 115.639 71.7513 113.689 70.1267C113.989 69.8338 114.29 69.537 114.587 69.2383C115.167 68.6581 115.742 68.0722 116.311 67.4768L116.423 67.3588L116.477 67.3036L116.488 67.2922C116.652 67.121 116.815 66.9498 116.975 66.7767L117.006 66.7443L117.072 66.6759L117.135 66.6074L117.143 66.5998L117.457 66.2631L117.472 66.2478C117.681 66.0215 117.891 65.7951 118.098 65.5687L118.13 65.5345L118.545 65.076L118.608 65.0056L118.619 64.9923L118.673 64.9352L118.737 64.8648C121.291 62.0265 123.773 58.9961 126.283 55.6689L126.327 55.6099L126.646 55.1838C130.418 50.1464 134.266 44.4318 138.54 37.688L141.707 32.6905L144.871 37.688ZM168.259 68.6676C168.446 68.8598 168.634 69.05 168.825 69.2383C169.405 69.8185 169.993 70.393 170.589 70.9637L170.61 70.9847L170.762 71.1292L170.836 71.1996L170.912 71.2719L170.937 71.2967L170.988 71.3442L171.287 71.6277L171.291 71.6315L171.443 71.7741L171.464 71.7932L171.595 71.9168L171.641 71.9587L171.818 72.1242L171.826 72.1318L171.98 72.2726L171.995 72.2878L172.174 72.4533L172.21 72.4856L172.442 72.6987L172.52 72.771L172.532 72.7805L172.596 72.8414L172.674 72.9117L172.71 72.9441L172.752 72.9821L172.891 73.1077L172.908 73.1229L173.064 73.2637L173.072 73.2713L173.142 73.336L173.22 73.4064L173.253 73.4349L173.298 73.4767L173.436 73.5966L173.456 73.6175L173.534 73.6879C176.418 76.2599 179.498 78.7614 182.886 81.2954L182.907 81.3106C187.94 85.0772 193.651 88.918 200.388 93.1831L205.387 96.3486L200.388 99.5141C191.527 105.124 184.442 110 178.338 114.934C176.397 113.424 174.758 111.626 173.39 109.296C178.598 105.077 184.473 100.914 191.472 96.3486C189.877 95.308 188.34 94.2884 186.856 93.2839H186.854L186.642 93.1393L186.465 93.0195L186.431 92.9948L186.22 92.854L186.077 92.757L186.011 92.7094L185.801 92.5667L185.695 92.4945L185.386 92.2833L185.31 92.23L184.973 91.9979L184.93 91.9694L184.768 91.8572L184.553 91.7088L184.359 91.5737L184.178 91.4482L184.155 91.4329L183.952 91.2922L183.803 91.1875L183.752 91.1514L183.55 91.0106L183.434 90.9288L183.348 90.8699L183.148 90.7291L183.065 90.6701L182.949 90.5902L182.751 90.4494L182.697 90.4114L182.553 90.3087L182.355 90.1698L182.334 90.1546L182.159 90.029L181.972 89.8978L181.963 89.8901L181.767 89.7513L181.611 89.639L181.573 89.6105L181.379 89.4716L181.255 89.3841L181.185 89.3328L180.992 89.1939L180.899 89.1273L180.798 89.055L180.608 88.9161L180.545 88.8705L180.416 88.7773L180.225 88.6384L180.195 88.6156L180.035 88.5014L179.847 88.3626L179.845 88.3607L179.656 88.2237L179.498 88.1057L179.47 88.0867L179.282 87.9479L179.152 87.8527L179.095 87.809L178.909 87.672L178.81 87.5978L178.722 87.535L178.537 87.3962L178.467 87.3448L178.353 87.2573C175.045 84.7881 172.014 82.3436 169.167 79.8363H169.165C168.737 79.4596 168.313 79.081 167.892 78.7006L167.877 78.6854L167.622 78.4552L167.589 78.4266C167.399 78.2535 167.209 78.0785 167.02 77.9035L166.998 77.8826L166.737 77.6429L166.731 77.6353L166.642 77.5535L166.465 77.3899L166.455 77.3803L166.375 77.3062C165.407 76.3987 164.455 75.4799 163.519 74.544C163.237 74.2624 162.958 73.979 162.68 73.6955C164.746 72.2478 166.602 70.5852 168.259 68.6676ZM169.749 122.544C169.439 122.848 169.131 123.153 168.825 123.459C168.244 124.039 167.669 124.627 167.1 125.22L167.045 125.278L166.977 125.35L166.933 125.395L166.91 125.42L166.842 125.491L166.775 125.563L166.767 125.57L166.708 125.633L166.64 125.704L166.602 125.745L166.571 125.776L166.505 125.848L166.438 125.919L166.434 125.921L166.37 125.989L166.303 126.061L166.271 126.097L166.168 126.206L166.103 126.274L166.101 126.278L166.035 126.349L165.966 126.421L165.94 126.451L165.9 126.493L165.833 126.565L165.774 126.628L165.766 126.638L165.633 126.782L165.61 126.807L165.565 126.855L165.498 126.927L165.445 126.986L165.431 127.001L165.298 127.146L165.283 127.163L165.232 127.218L165.165 127.292L165.117 127.343L165.098 127.364L165.032 127.439L164.965 127.511L164.954 127.524L164.899 127.585L164.834 127.657L164.701 127.804L164.634 127.878L164.628 127.886L164.568 127.952L164.501 128.026C161.962 130.861 159.494 133.886 156.997 137.205L156.817 137.445L156.765 137.513C152.993 142.551 149.146 148.267 144.871 155.011L141.705 160.009L138.54 155.011C133.046 146.34 128.258 139.372 123.428 133.359C124.907 131.352 126.654 129.655 128.924 128.234C133.088 133.387 137.2 139.195 141.707 146.099C142.748 144.503 143.768 142.965 144.771 141.484L144.877 141.328L145.026 141.109L145.035 141.094L145.174 140.892L145.3 140.706L145.321 140.673L145.469 140.458L145.562 140.321L145.615 140.243L145.764 140.028L145.825 139.939L145.91 139.815L146.057 139.6L146.086 139.558L146.204 139.389L146.348 139.182L146.35 139.178L146.643 138.756L146.79 138.546L146.868 138.432L146.934 138.337L147.079 138.13L147.126 138.063L147.225 137.922L147.37 137.715L147.385 137.694L147.517 137.51L147.644 137.327L147.661 137.304L147.806 137.099L147.903 136.964L147.95 136.895L148.095 136.692L148.16 136.602L148.24 136.49L148.384 136.288L148.814 135.687L148.929 135.529L148.959 135.487L149.104 135.29L149.389 134.894L149.441 134.823L149.532 134.698L149.819 134.306L149.951 134.127L149.962 134.112L150.105 133.918L150.249 133.724L150.39 133.532L150.459 133.439L150.533 133.34L150.677 133.149L150.818 132.957L151.104 132.577C153.585 129.28 156.04 126.255 158.565 123.413L158.598 123.375L158.64 123.33L158.792 123.158L158.857 123.086L158.868 123.073L158.944 122.989L159.096 122.82L159.115 122.797L159.325 122.567L159.374 122.512L159.399 122.483L159.553 122.314L159.629 122.23L159.635 122.224L159.705 122.146L159.858 121.979L159.896 121.939L159.934 121.895C160.088 121.73 160.242 121.562 160.394 121.397L160.417 121.372L160.472 121.315L160.626 121.149L160.68 121.09L160.703 121.066L160.935 120.818L160.942 120.809C161.791 119.909 162.647 119.026 163.519 118.153C163.949 117.723 164.383 117.297 164.819 116.875C166.238 118.971 167.867 120.858 169.749 122.544ZM115.814 124.705C115.409 124.286 115 123.87 114.587 123.459C114.007 122.879 113.419 122.302 112.823 121.735L112.65 121.568L112.638 121.557L112.574 121.498L112.511 121.437L112.475 121.402L112.319 121.254L112.3 121.237L112.126 121.073L112.123 121.07L112.062 121.012L111.948 120.904L111.932 120.893L111.805 120.771L111.771 120.739L111.74 120.71L111.675 120.651L111.417 120.409H111.415L111.352 120.35L111.238 120.246L111.222 120.231L111.156 120.172L111.059 120.08L111.026 120.052L110.962 119.991L110.895 119.932L110.88 119.917L110.83 119.873L110.52 119.59L110.501 119.574C107.5 116.856 104.288 114.227 100.741 111.564L100.598 111.455L100.526 111.402L100.507 111.389C95.4732 107.622 89.7623 103.781 83.0237 99.5141L78.0264 96.3505L78.0245 96.3486L83.0237 93.185C91.8651 87.5845 98.9386 82.7183 105.036 77.7932C107.097 79.2446 108.844 80.9491 110.307 83.1692C105.028 87.4685 99.0661 91.6993 91.9374 96.3486C94.9346 98.3042 97.7263 100.184 100.347 102.027L100.402 102.065C102.324 103.42 104.157 104.753 105.911 106.081C109.194 108.565 112.206 111.031 115.042 113.567C116.715 115.064 118.324 116.586 119.893 118.153C120.397 118.657 120.895 119.165 121.39 119.679C119.325 121.127 117.47 122.789 115.814 124.705ZM133.257 65.3709C135.124 66.5846 145.699 72.8071 155.38 67.2903C165.367 61.6004 165.782 51.693 170.452 47.2853C175.584 42.4457 183.459 47.0741 187.811 51.1756C194.085 57.0919 196.089 63.2859 192.426 67.3835C189.876 70.237 185.953 74.0436 181.238 77.5344C179.245 75.9688 177.281 74.3651 175.38 72.693C180.256 69.303 184.363 65.348 186.937 62.4698C186.954 62.4508 186.871 62.348 186.797 62.0874C186.351 60.5237 184.962 58.6042 182.751 56.5193C181.028 54.8966 178.614 53.1768 176.419 52.6841C175.959 52.5814 175.605 52.5415 175.512 52.629C174.787 53.3138 173.909 55.1496 172.939 57.1851C170.339 62.622 167.315 68.9549 159.032 73.6746C155.713 75.5655 152.348 76.49 149.117 76.783C149.989 77.3328 150.942 77.8445 151.979 78.3068C155.901 80.0493 160.28 79.7297 164.575 78.3163L165.032 78.7462L165.298 78.9954L165.694 79.3588C165.882 79.5319 166.071 79.705 166.259 79.8781L166.562 80.154C166.99 80.5458 167.428 80.9301 167.865 81.3144C168.817 82.1533 169.782 82.977 170.758 83.7855C163.766 86.9244 156.122 88.1914 148.98 85.0163C135.908 79.2066 132.934 67.2922 133.257 65.3709ZM190.873 145.655C193.71 142.819 197.429 141.4 201.147 141.4C204.866 141.4 208.586 142.819 211.423 145.655C214.261 148.494 215.68 152.211 215.68 155.928C215.68 159.645 214.261 163.362 211.423 166.199C208.586 169.035 204.866 170.454 201.147 170.454C197.429 170.454 193.71 169.035 190.873 166.199C189.366 164.694 188.26 162.94 187.554 161.07C189.822 159.457 192.015 157.718 194.121 155.86V155.928C194.121 157.726 194.806 159.523 196.178 160.895C197.55 162.267 199.349 162.951 201.147 162.951C202.945 162.951 204.746 162.267 206.116 160.895C207.488 159.523 208.175 157.726 208.175 155.928C208.175 154.13 207.488 152.331 206.116 150.961C204.746 149.589 202.945 148.903 201.147 148.903C199.45 148.903 197.752 149.515 196.412 150.737L196.431 150.756C196.38 150.805 196.332 150.856 196.281 150.906C181.303 165.879 161.671 173.367 142.04 173.367C127.088 173.367 112.134 169.022 99.2354 160.334C99.6103 158.936 99.8044 157.484 99.8044 156.006C99.8044 154.239 99.5266 152.506 98.9938 150.86C111.559 160.863 126.799 165.864 142.04 165.864C159.443 165.864 176.846 159.343 190.264 146.302C190.458 146.082 190.662 145.867 190.873 145.655ZM93.104 145.577C95.9432 148.414 97.361 152.131 97.361 155.848C97.361 159.565 95.9432 163.284 93.104 166.121C90.2666 168.957 86.5481 170.376 82.8296 170.376C79.1112 170.376 75.3927 168.957 72.5534 166.121C69.716 163.284 68.2983 159.565 68.2983 155.848C68.2983 152.131 69.716 148.414 72.5534 145.577C74.0606 144.071 75.8151 142.965 77.6858 142.26C79.2976 144.527 81.037 146.721 82.8981 148.825H82.8296C81.0313 148.825 79.2329 149.51 77.8609 150.881C76.4888 152.253 75.8018 154.05 75.8018 155.848C75.8018 157.648 76.4888 159.445 77.8609 160.817C79.2329 162.187 81.0313 162.873 82.8296 162.873C84.628 162.873 86.4263 162.187 87.7984 160.817C89.1704 159.445 89.8555 157.648 89.8555 155.848C89.8555 154.151 89.2447 152.454 88.021 151.115L88.0153 151.121C87.943 151.049 87.8707 150.978 87.7984 150.906C72.8198 135.933 65.3296 116.308 65.3296 96.6834H65.3448C65.3448 81.653 69.7312 66.6283 78.5041 53.6943C79.8762 54.0557 81.3015 54.2422 82.7497 54.2422C84.5785 54.2422 86.3711 53.9454 88.0648 53.3766C77.9027 65.9967 72.8198 81.3429 72.8198 96.6834H72.835C72.835 114.191 79.4423 131.696 92.6529 145.146C92.8052 145.286 92.9555 145.429 93.104 145.577ZM190.951 47.7647C188.113 44.9283 186.694 41.2111 186.694 37.4939C186.694 33.7749 188.113 30.0577 190.951 27.2213C193.788 24.3849 197.509 22.9658 201.227 22.9658C204.945 22.9658 208.664 24.3849 211.501 27.2213C214.339 30.0577 215.758 33.7749 215.758 37.4939C215.758 41.2092 214.339 44.9283 211.501 47.7647C209.996 49.2713 208.241 50.3766 206.371 51.0824C204.757 48.8129 203.018 46.6214 201.158 44.5174H201.227C203.025 44.5174 204.824 43.8325 206.196 42.461C207.568 41.0894 208.253 39.2917 208.253 37.4939C208.253 35.6943 207.568 33.8966 206.196 32.5269C204.824 31.1534 203.025 30.4686 201.227 30.4686C199.427 30.4686 197.63 31.1534 196.258 32.525C194.886 33.8966 194.199 35.6943 194.199 37.4939C194.199 39.2917 194.886 41.0894 196.258 42.4591L196.27 42.4476L196.281 42.4591C211.26 57.4343 218.75 77.0588 218.75 96.6834C218.75 111.655 214.388 126.628 205.669 139.537C204.26 139.155 202.795 138.959 201.305 138.959C199.554 138.959 197.836 139.231 196.205 139.754C206.232 127.186 211.246 111.934 211.246 96.6834C211.246 79.1666 204.63 61.6499 191.404 48.1965C191.25 48.0576 191.099 47.9131 190.951 47.7647Z" fill="white"/>
</g>
<defs>
<filter id="filter0_dd_12_9" x="68.0343" y="255.932" width="148.013" height="48.8896" filterUnits="userSpaceOnUse" color-interpolation-filters="sRGB">
<feFlood flood-opacity="0" result="BackgroundImageFix"/>
<feColorMatrix in="SourceAlpha" type="matrix" values="0 0 0 0 0 0 0 0 0 0 0 0 0 0 0 0 0 0 127 0" result="hardAlpha"/>
<feOffset/>
<feGaussianBlur stdDeviation="10"/>
<feComposite in2="hardAlpha" operator="out"/>
<feColorMatrix type="matrix" values="0 0 0 0 1 0 0 0 0 0 0 0 0 0 0 0 0 0 1 0"/>
<feBlend mode="normal" in2="BackgroundImageFix" result="effect1_dropShadow_12_9"/>
<feColorMatrix in="SourceAlpha" type="matrix" values="0 0 0 0 0 0 0 0 0 0 0 0 0 0 0 0 0 0 127 0" result="hardAlpha"/>
<feOffset/>
<feGaussianBlur stdDeviation="2"/>
<feComposite in2="hardAlpha" operator="out"/>
<feColorMatrix type="matrix" values="0 0 0 0 1 0 0 0 0 1 0 0 0 0 1 0 0 0 1 0"/>
<feBlend mode="normal" in2="effect1_dropShadow_12_9" result="effect2_dropShadow_12_9"/>
<feBlend mode="normal" in="SourceGraphic" in2="effect2_dropShadow_12_9" result="shape"/>
</filter>
<filter id="filter1_dd_12_9" x="0" y="195.511" width="284.079" height="83.3373" filterUnits="userSpaceOnUse" color-interpolation-filters="sRGB">
<feFlood flood-opacity="0" result="BackgroundImageFix"/>
<feColorMatrix in="SourceAlpha" type="matrix" values="0 0 0 0 0 0 0 0 0 0 0 0 0 0 0 0 0 0 127 0" result="hardAlpha"/>
<feOffset/>
<feGaussianBlur stdDeviation="10"/>
<feComposite in2="hardAlpha" operator="out"/>
<feColorMatrix type="matrix" values="0 0 0 0 1 0 0 0 0 0 0 0 0 0 0 0 0 0 1 0"/>
<feBlend mode="normal" in2="BackgroundImageFix" result="effect1_dropShadow_12_9"/>
<feColorMatrix in="SourceAlpha" type="matrix" values="0 0 0 0 0 0 0 0 0 0 0 0 0 0 0 0 0 0 127 0" result="hardAlpha"/>
<feOffset/>
<feGaussianBlur stdDeviation="2"/>
<feComposite in2="hardAlpha" operator="out"/>
<feColorMatrix type="matrix" values="0 0 0 0 1 0 0 0 0 1 0 0 0 0 1 0 0 0 1 0"/>
<feBlend mode="normal" in2="effect1_dropShadow_12_9" result="effect2_dropShadow_12_9"/>
<feBlend mode="normal" in="SourceGraphic" in2="effect2_dropShadow_12_9" result="shape"/>
</filter>
<filter id="filter2_dd_12_9" x="45.3296" y="0" width="193.42" height="193.367" filterUnits="userSpaceOnUse" color-interpolation-filters="sRGB">
<feFlood flood-opacity="0" result="BackgroundImageFix"/>
<feColorMatrix in="SourceAlpha" type="matrix" values="0 0 0 0 0 0 0 0 0 0 0 0 0 0 0 0 0 0 127 0" result="hardAlpha"/>
<feOffset/>
<feGaussianBlur stdDeviation="10"/>
<feComposite in2="hardAlpha" operator="out"/>
<feColorMatrix type="matrix" values="0 0 0 0 1 0 0 0 0 0 0 0 0 0 0 0 0 0 1 0"/>
<feBlend mode="normal" in2="BackgroundImageFix" result="effect1_dropShadow_12_9"/>
<feColorMatrix in="SourceAlpha" type="matrix" values="0 0 0 0 0 0 0 0 0 0 0 0 0 0 0 0 0 0 127 0" result="hardAlpha"/>
<feOffset/>
<feGaussianBlur stdDeviation="2"/>
<feComposite in2="hardAlpha" operator="out"/>
<feColorMatrix type="matrix" values="0 0 0 0 1 0 0 0 0 1 0 0 0 0 1 0 0 0 1 0"/>
<feBlend mode="normal" in2="effect1_dropShadow_12_9" result="effect2_dropShadow_12_9"/>
<feBlend mode="normal" in="SourceGraphic" in2="effect2_dropShadow_12_9" result="shape"/>
</filter>
</defs>
</svg>
