<svg width="16" height="19" viewBox="0 0 16 19" fill="none" xmlns="http://www.w3.org/2000/svg">
<path d="M0.90534 7.02694C1.05279 6.87779 1.2565 6.7856 1.4815 6.7856H14.5186C14.7435 6.7856 14.9472 6.87779 15.0947 7.02694M0.90534 7.02694C0.757887 7.17603 0.666687 7.38204 0.666687 7.60957V17.4973C0.666687 17.9524 1.03149 18.3213 1.4815 18.3213H9.62962M0.90534 7.02694L2.66669 5.08917M15.0947 7.02694C15.2422 7.17603 15.3334 7.38204 15.3334 7.60957V17.4973C15.3334 17.9524 14.9686 18.3213 14.5186 18.3213H12.8889M15.0947 7.02694L9.00002 1.35702C8.33335 0.678528 7.00002 0.678508 6.33335 1.35702L4.00002 3.73208" stroke="#FF8383" stroke-linecap="round" stroke-linejoin="round"/>
</svg>
