<svg width="24" height="19" viewBox="0 0 24 19" fill="none" xmlns="http://www.w3.org/2000/svg">
<path d="M1.35798 1.35565C1.57916 1.13592 1.88472 1 2.22222 1H21.7778C22.1152 1 22.4208 1.13592 22.642 1.35565M1.35798 1.35565C1.1368 1.5754 1 1.87897 1 2.21429V16.7857C1 17.4564 1.54721 18 2.22222 18H14.4444M1.35798 1.35565L3.44444 3.42864M22.642 1.35565C22.8632 1.5754 23 1.87897 23 2.21429V16.7857C23 17.4564 22.4528 18 21.7778 18H19.3333M22.642 1.35565L13.7285 10.2112C12.7738 11.1597 11.2261 11.1597 10.2714 10.2112L7.11111 7.07143" stroke="#FF8383" stroke-width="1.5" stroke-linecap="round" stroke-linejoin="round"/>
</svg>
