<svg width="24" height="28" viewBox="0 0 24 28" fill="none" xmlns="http://www.w3.org/2000/svg">
<path d="M1.35798 10.3556C1.57916 10.1358 1.88472 9.99993 2.22222 9.99993H21.7778C22.1152 9.99993 22.4208 10.1358 22.642 10.3556M1.35798 10.3556C1.1368 10.5753 1 10.8789 1 11.2142V25.7856C1 26.4563 1.54721 26.9999 2.22222 26.9999H14.4444M1.35798 10.3556L4 7.49993M22.642 10.3556C22.8632 10.5753 23 10.8789 23 11.2142V25.7856C23 26.4563 22.4528 26.9999 21.7778 26.9999H19.3333M22.642 10.3556L13.5 1.99993C12.5 1.00004 10.5 1.00001 9.5 1.99993L6 5.50001" stroke="#FF8383" stroke-width="1.5" stroke-linecap="round" stroke-linejoin="round"/>
</svg>
