<svg width="23" height="23" viewBox="0 0 23 23" fill="none" xmlns="http://www.w3.org/2000/svg">
<path d="M2.22085 5.79133C2.19588 5.326 1.79841 4.96903 1.33309 4.994C0.867768 5.01898 0.510805 5.41645 0.53578 5.88176L2.22085 5.79133ZM3.30743 1.47851C2.98651 1.81639 3.00025 2.35043 3.33812 2.67136C3.67599 2.99228 4.21004 2.97854 4.53097 2.64067L3.30743 1.47851ZM9.99713 20.2887C10.3917 20.5367 10.9125 20.4179 11.1605 20.0233C11.4084 19.6288 11.2895 19.1079 10.895 18.86L9.99713 20.2887ZM15.0021 20.5656C14.5461 20.4701 14.0989 20.7624 14.0034 21.2185C13.9079 21.6746 14.2001 22.1218 14.6563 22.2173L15.0021 20.5656ZM15.6002 15.4865L16.1125 14.9471L14.889 13.785L14.3766 14.3244L15.6002 15.4865ZM17.7986 14.72L19.9479 15.9571L20.7897 14.4946L18.6404 13.2575L17.7986 14.72ZM20.3627 18.522L18.7646 20.2046L19.9881 21.3667L21.5862 19.6842L20.3627 18.522ZM7.40412 15.9534C3.04347 11.3624 2.31202 7.48987 2.22085 5.79133L0.53578 5.88176C0.647437 7.96215 1.53076 12.2202 6.18058 17.1155L7.40412 15.9534ZM8.95138 8.48666L9.27409 8.14695L8.05051 6.98479L7.72784 7.3245L8.95138 8.48666ZM9.52756 3.9175L8.10892 1.91108L6.73103 2.88529L8.14964 4.89171L9.52756 3.9175ZM8.33961 7.90557C7.72784 7.3245 7.72706 7.32532 7.72627 7.32614C7.72602 7.32643 7.72523 7.32727 7.72469 7.32783C7.72362 7.32898 7.72253 7.33013 7.72142 7.33133C7.71921 7.33371 7.71691 7.3362 7.71456 7.3388C7.70984 7.34398 7.70483 7.3496 7.69957 7.35565C7.68905 7.36775 7.67748 7.38159 7.66512 7.39722C7.64039 7.42847 7.61241 7.46687 7.58306 7.51273C7.52421 7.60471 7.46038 7.72584 7.40633 7.87774C7.29641 8.18663 7.23652 8.59568 7.31136 9.10651C7.45841 10.1102 8.11604 11.4598 9.83434 13.2688L11.0579 12.1067C9.45173 10.4157 9.05612 9.37429 8.98103 8.86187C8.94482 8.61465 8.98162 8.48438 8.99617 8.44348C9.00435 8.42048 9.00971 8.41409 9.00448 8.42228C9.00193 8.42624 8.99687 8.43369 8.98837 8.44445C8.9841 8.44982 8.97898 8.45603 8.97286 8.46308C8.9698 8.46659 8.9665 8.47031 8.96292 8.47425C8.96113 8.47622 8.95927 8.47823 8.95735 8.4803C8.95639 8.48133 8.95541 8.48238 8.95441 8.48344C8.95392 8.48397 8.95315 8.48478 8.95291 8.48504C8.95214 8.48585 8.95138 8.48666 8.33961 7.90557ZM9.83434 13.2688C11.5475 15.0725 12.8415 15.7816 13.8287 15.9419C14.3351 16.0242 14.7452 15.9585 15.0557 15.8361C15.2075 15.7762 15.3276 15.7059 15.4177 15.642C15.4626 15.6101 15.5001 15.5798 15.5303 15.5534C15.5454 15.5401 15.5588 15.5277 15.5704 15.5165C15.5762 15.5109 15.5815 15.5055 15.5865 15.5006C15.5889 15.4981 15.5914 15.4956 15.5937 15.4933C15.5948 15.4922 15.5959 15.491 15.5969 15.4899C15.5975 15.4893 15.5983 15.4884 15.5986 15.4882C15.5994 15.4873 15.6002 15.4865 14.9884 14.9055C14.3766 14.3244 14.3774 14.3236 14.3781 14.3228C14.3784 14.3225 14.3791 14.3217 14.3797 14.3211C14.3807 14.3201 14.3817 14.3191 14.3826 14.3181C14.3846 14.3161 14.3865 14.3141 14.3885 14.3121C14.3922 14.3084 14.3958 14.3048 14.3991 14.3016C14.406 14.295 14.4121 14.2894 14.4175 14.2847C14.4283 14.2752 14.4363 14.2692 14.4414 14.2656C14.4519 14.258 14.4509 14.2606 14.4365 14.2662C14.4148 14.2748 14.3126 14.3109 14.0991 14.2763C13.6463 14.2027 12.669 13.803 11.0579 12.1067L9.83434 13.2688ZM8.10892 1.91108C6.96863 0.298299 4.68688 0.0262069 3.30743 1.47851L4.53097 2.64067C5.11915 2.02142 6.15464 2.07006 6.73103 2.88529L8.10892 1.91108ZM18.7646 20.2046C18.4506 20.5351 18.1222 20.7122 17.8029 20.7437L17.9688 22.4231C18.8091 22.34 19.4893 21.8918 19.9881 21.3667L18.7646 20.2046ZM9.27409 8.14695C10.3625 7.00094 10.4396 5.20749 9.52756 3.9175L8.14964 4.89171C8.62456 5.56341 8.55173 6.45709 8.05051 6.98479L9.27409 8.14695ZM19.9479 15.9571C20.8714 16.4887 21.0521 17.7963 20.3627 18.522L21.5862 19.6842C23.0543 18.1386 22.6267 15.552 20.7897 14.4946L19.9479 15.9571ZM16.1125 14.9471C16.5461 14.4906 17.2218 14.388 17.7986 14.72L18.6404 13.2575C17.4046 12.5461 15.872 12.7501 14.889 13.785L16.1125 14.9471ZM10.895 18.86C9.78833 18.1645 8.61044 17.2234 7.40412 15.9534L6.18058 17.1155C7.47886 18.4824 8.76511 19.5145 9.99713 20.2887L10.895 18.86ZM17.8029 20.7437C17.1881 20.8044 16.2151 20.8196 15.0021 20.5656L14.6563 22.2173C16.0609 22.5114 17.2085 22.4981 17.9688 22.4231L17.8029 20.7437Z" fill="#FF8383"/>
</svg>
