<svg width="24" height="24" viewBox="0 0 24 24" fill="none" xmlns="http://www.w3.org/2000/svg">
<path d="M13.1875 1.25C13.1875 1.25 15.8127 1.48865 19.1537 4.82973C22.4947 8.17081 22.7335 10.796 22.7335 10.796" stroke="#FF8383" stroke-linecap="round"/>
<path d="M13.9828 5.22754C13.9828 5.22754 15.0966 5.54575 16.7671 7.21628C18.4376 8.88683 18.7559 10.0005 18.7559 10.0005" stroke="#FF8383" stroke-linecap="round"/>
<path d="M2.22085 6.79133C2.19588 6.326 1.79841 5.96903 1.33309 5.994C0.867768 6.01898 0.510805 6.41645 0.53578 6.88176L2.22085 6.79133ZM3.30743 2.47851C2.98651 2.81639 3.00025 3.35043 3.33812 3.67136C3.67599 3.99228 4.21004 3.97854 4.53097 3.64067L3.30743 2.47851ZM9.99713 21.2887C10.3917 21.5367 10.9125 21.4179 11.1605 21.0233C11.4084 20.6288 11.2895 20.1079 10.895 19.86L9.99713 21.2887ZM15.0021 21.5656C14.5461 21.4701 14.0989 21.7624 14.0034 22.2185C13.9079 22.6746 14.2001 23.1218 14.6563 23.2173L15.0021 21.5656ZM15.6002 16.4865L16.1125 15.9471L14.889 14.785L14.3766 15.3244L15.6002 16.4865ZM17.7986 15.72L19.9479 16.9571L20.7897 15.4946L18.6404 14.2575L17.7986 15.72ZM20.3627 19.522L18.7646 21.2046L19.9881 22.3667L21.5862 20.6842L20.3627 19.522ZM7.40412 16.9534C3.04347 12.3624 2.31202 8.48987 2.22085 6.79133L0.53578 6.88176C0.647437 8.96215 1.53076 13.2202 6.18058 18.1155L7.40412 16.9534ZM8.95138 9.48666L9.27409 9.14695L8.05051 7.98479L7.72784 8.3245L8.95138 9.48666ZM9.52756 4.9175L8.10892 2.91108L6.73103 3.88529L8.14964 5.89171L9.52756 4.9175ZM8.33961 8.90557C7.72784 8.3245 7.72706 8.32532 7.72627 8.32614C7.72602 8.32643 7.72523 8.32727 7.72469 8.32783C7.72362 8.32898 7.72253 8.33013 7.72142 8.33133C7.71921 8.33371 7.71691 8.3362 7.71456 8.3388C7.70984 8.34398 7.70483 8.3496 7.69957 8.35565C7.68905 8.36775 7.67748 8.38159 7.66512 8.39722C7.64039 8.42847 7.61241 8.46687 7.58306 8.51273C7.52421 8.60471 7.46038 8.72584 7.40633 8.87774C7.29641 9.18663 7.23652 9.59568 7.31136 10.1065C7.45841 11.1102 8.11604 12.4598 9.83434 14.2688L11.0579 13.1067C9.45173 11.4157 9.05612 10.3743 8.98103 9.86187C8.94482 9.61465 8.98162 9.48438 8.99617 9.44348C9.00435 9.42048 9.00971 9.41409 9.00448 9.42228C9.00193 9.42624 8.99687 9.43369 8.98837 9.44445C8.9841 9.44982 8.97898 9.45603 8.97286 9.46308C8.9698 9.46659 8.9665 9.47031 8.96292 9.47425C8.96113 9.47622 8.95927 9.47823 8.95735 9.4803C8.95639 9.48133 8.95541 9.48238 8.95441 9.48344C8.95392 9.48397 8.95315 9.48478 8.95291 9.48504C8.95214 9.48585 8.95138 9.48666 8.33961 8.90557ZM9.83434 14.2688C11.5475 16.0725 12.8415 16.7816 13.8287 16.9419C14.3351 17.0242 14.7452 16.9585 15.0557 16.8361C15.2075 16.7762 15.3276 16.7059 15.4177 16.642C15.4626 16.6101 15.5001 16.5798 15.5303 16.5534C15.5454 16.5401 15.5588 16.5277 15.5704 16.5165C15.5762 16.5109 15.5815 16.5055 15.5865 16.5006C15.5889 16.4981 15.5914 16.4956 15.5937 16.4933C15.5948 16.4922 15.5959 16.491 15.5969 16.4899C15.5975 16.4893 15.5983 16.4884 15.5986 16.4882C15.5994 16.4873 15.6002 16.4865 14.9884 15.9055C14.3766 15.3244 14.3774 15.3236 14.3781 15.3228C14.3784 15.3225 14.3791 15.3217 14.3797 15.3211C14.3807 15.3201 14.3817 15.3191 14.3826 15.3181C14.3846 15.3161 14.3865 15.3141 14.3885 15.3121C14.3922 15.3084 14.3958 15.3048 14.3991 15.3016C14.406 15.295 14.4121 15.2894 14.4175 15.2847C14.4283 15.2752 14.4363 15.2692 14.4414 15.2656C14.4519 15.258 14.4509 15.2606 14.4365 15.2662C14.4148 15.2748 14.3126 15.3109 14.0991 15.2763C13.6463 15.2027 12.669 14.803 11.0579 13.1067L9.83434 14.2688ZM8.10892 2.91108C6.96863 1.2983 4.68688 1.02621 3.30743 2.47851L4.53097 3.64067C5.11915 3.02142 6.15464 3.07006 6.73103 3.88529L8.10892 2.91108ZM18.7646 21.2046C18.4506 21.5351 18.1222 21.7122 17.8029 21.7437L17.9688 23.4231C18.8091 23.34 19.4893 22.8918 19.9881 22.3667L18.7646 21.2046ZM9.27409 9.14695C10.3625 8.00094 10.4396 6.20749 9.52756 4.9175L8.14964 5.89171C8.62456 6.56341 8.55173 7.45709 8.05051 7.98479L9.27409 9.14695ZM19.9479 16.9571C20.8714 17.4887 21.0521 18.7963 20.3627 19.522L21.5862 20.6842C23.0543 19.1386 22.6267 16.552 20.7897 15.4946L19.9479 16.9571ZM16.1125 15.9471C16.5461 15.4906 17.2218 15.388 17.7986 15.72L18.6404 14.2575C17.4046 13.5461 15.872 13.7501 14.889 14.785L16.1125 15.9471ZM10.895 19.86C9.78833 19.1645 8.61044 18.2234 7.40412 16.9534L6.18058 18.1155C7.47886 19.4824 8.76511 20.5145 9.99713 21.2887L10.895 19.86ZM17.8029 21.7437C17.1881 21.8044 16.2151 21.8196 15.0021 21.5656L14.6563 23.2173C16.0609 23.5114 17.2085 23.4981 17.9688 23.4231L17.8029 21.7437Z" fill="#FF8383"/>
</svg>
