<svg width="36" height="36" viewBox="0 0 36 36" fill="none" xmlns="http://www.w3.org/2000/svg">
<path d="M23.5248 0H12.474C2.38947 0 -0.00115967 2.39062 -0.00115967 12.4751V23.526C-0.00115967 33.6105 2.38947 36.0011 12.474 36.0011H23.5248C33.6093 36.0011 36 33.6105 36 23.526V12.4751C36 2.39062 33.5857 0 23.5248 0ZM29.0621 25.6815H26.4487C25.4587 25.6815 25.1538 24.8962 23.373 23.0917C21.8261 21.5921 21.141 21.393 20.7596 21.393C20.2207 21.393 20.0677 21.5449 20.0677 22.284V24.6454C20.0677 25.2787 19.8686 25.659 18.1923 25.659C15.4203 25.659 12.3446 23.9827 10.188 20.8597C6.93559 16.2832 6.04572 12.8554 6.04572 12.1466C6.04572 11.7652 6.19759 11.4086 6.92997 11.4086H9.54897C10.2116 11.4086 10.4636 11.7135 10.7212 12.4222C12.0161 16.1606 14.1727 19.4355 15.0626 19.4355C15.3911 19.4355 15.543 19.2836 15.543 18.4455V14.5845C15.4428 12.8036 14.5057 12.6506 14.5057 12.0184C14.5057 11.7135 14.7577 11.4086 15.1616 11.4086H19.2802C19.8371 11.4086 20.0418 11.7135 20.0418 12.3694V17.5781C20.0418 18.1406 20.2938 18.3398 20.4457 18.3398C20.7742 18.3398 21.0555 18.1406 21.6641 17.5309C23.5451 15.4215 24.8928 12.1691 24.8928 12.1691C25.0683 11.7878 25.3732 11.4311 26.0358 11.4311H28.6548C29.4401 11.4311 29.6156 11.835 29.4401 12.3975C29.1116 13.9208 25.9065 18.4444 25.9065 18.4444C25.6308 18.9011 25.5251 19.1002 25.9065 19.6099C26.1877 19.9912 27.1023 20.7821 27.711 21.4909C28.8303 22.7621 29.691 23.8286 29.9205 24.5666C30.1781 25.299 29.7978 25.6804 29.0587 25.6804L29.0621 25.6815Z" fill="white"/>
</svg>
